<svg xmlns="http://www.w3.org/2000/svg" width="31" height="31" viewBox="0 0 31 31">
  <g id="linkedin_31p" transform="translate(2)">
    <path id="Trazado_2139" data-name="Trazado 2139" d="M0,0H31V31H0Z" transform="translate(-2)" fill="none"/>
    <path id="linkedin" d="M26.9,4H7.1A3.1,3.1,0,0,0,4,7.1V26.9A3.1,3.1,0,0,0,7.1,30H26.9A3.1,3.1,0,0,0,30,26.9V7.1A3.1,3.1,0,0,0,26.9,4ZM12.048,13.9V25.667H8.333V13.9ZM8.333,10.481a1.821,1.821,0,0,1,1.857-1.76,1.8,1.8,0,1,1,0,3.6A1.884,1.884,0,0,1,8.333,10.481ZM25.667,25.667H21.952v-6.19a2.226,2.226,0,0,0-2.167-2.5h-.05c-1.5,0-2.117,1.275-2.117,2.5v6.19H13.9V13.9h3.714V15.49a4.637,4.637,0,0,1,3.6-1.585c2.458,0,4.451,1.69,4.451,5.113Z" transform="translate(-4 -2)" fill="#191c1f"/>
  </g>
</svg>
